<svg width="49" height="48" viewBox="0 0 49 48" fill="none" xmlns="http://www.w3.org/2000/svg">
<path d="M39.5 17C39.5 13.0218 37.9196 9.20644 35.1066 6.3934C32.2936 3.58035 28.4782 2 24.5 2C20.5218 2 16.7064 3.58035 13.8934 6.3934C11.0804 9.20644 9.5 13.0218 9.5 17C9.5 34.5 2 39.5 2 39.5H47C47 39.5 39.5 34.5 39.5 17Z" stroke="#5E34A9" strokeWidth="3" strokeLinecap="round" strokeLinejoin="round"/>
<path d="M32.8248 43.5C32.3853 44.2577 31.7544 44.8866 30.9954 45.3238C30.2363 45.761 29.3758 45.9911 28.4998 45.9911C27.6239 45.9911 26.7633 45.761 26.0042 45.3238C25.2452 44.8866 24.6143 44.2577 24.1748 43.5" stroke="#5E34A9" strokeWidth="3" strokeLinecap="round" strokeLinejoin="round"/>
</svg>
